<?xml version="1.0" standalone="no"?>
<!DOCTYPE svg PUBLIC "-//W3C//DTD SVG 20010904//EN"
 "http://www.w3.org/TR/2001/REC-SVG-20010904/DTD/svg10.dtd">
<svg version="1.0" xmlns="http://www.w3.org/2000/svg"
 width="62.000000pt" height="59.000000pt" viewBox="0 0 62.000000 59.000000"
 preserveAspectRatio="xMidYMid meet">
<metadata>
Created by potrace 1.10, written by Peter Selinger 2001-2011
</metadata>
<g transform="translate(0.000000,59.000000) scale(0.100000,-0.100000)"
fill="#000000" stroke="none">
<path d="M426 509 c-8 -12 -12 -28 -9 -35 4 -12 0 -12 -23 -4 -20 8 -29 8 -35
-2 -4 -7 -11 -9 -15 -5 -4 4 -13 2 -21 -5 -11 -9 -11 -14 4 -31 12 -13 14 -21
7 -24 -7 -2 -9 -13 -6 -25 4 -16 2 -19 -8 -13 -9 5 -11 4 -6 -3 10 -17 -13
-94 -26 -86 -7 4 -8 3 -4 -5 11 -16 -14 -119 -30 -125 -8 -3 -14 -1 -14 3 0 5
5 11 11 13 7 2 5 18 -6 46 -16 39 -16 46 -1 91 9 28 16 56 16 64 0 8 10 26 21
41 26 33 21 41 -17 24 -39 -16 -39 -15 -23 -34 11 -14 11 -18 -4 -29 -9 -6
-14 -15 -11 -18 9 -9 -16 -77 -28 -77 -6 0 -8 3 -5 6 3 4 1 16 -5 28 -10 18
-9 19 4 8 24 -19 29 7 6 30 -17 17 -17 20 -3 34 18 18 10 40 -9 25 -7 -6 -22
-12 -34 -14 -31 -5 -40 -17 -20 -28 9 -5 26 -39 38 -75 21 -63 22 -68 6 -116
-9 -28 -16 -57 -16 -65 0 -13 -3 -13 -15 -3 -20 16 -20 44 0 36 20 -7 20 -9
-21 81 -20 43 -37 92 -39 108 -2 25 -7 29 -25 27 -12 -2 -30 -11 -41 -20 -19
-16 -19 -17 2 -28 16 -8 36 -49 68 -139 26 -71 52 -130 57 -132 14 -5 48 83
38 98 -4 7 -3 9 4 5 7 -4 12 6 14 26 2 17 9 33 16 36 9 3 11 -3 7 -20 -6 -26
31 -131 38 -108 14 42 68 222 83 275 9 33 21 63 26 66 5 3 10 16 11 27 2 28
22 28 41 1 l14 -21 19 22 c10 12 24 28 31 36 7 8 9 14 3 14 -5 0 -13 9 -16 20
-8 26 -30 25 -49 -1z m30 -36 c-10 -10 -19 5 -10 18 6 11 8 11 12 0 2 -7 1
-15 -2 -18z"/>
<path d="M482 430 c-12 -5 -25 -16 -28 -25 -5 -11 -10 -12 -18 -5 -9 7 -19 1
-36 -22 -15 -21 -19 -33 -12 -36 8 -2 12 -33 12 -92 0 -74 -3 -91 -17 -99 -31
-17 -5 -25 37 -11 35 12 57 40 30 40 -6 0 -10 37 -10 90 0 84 1 91 27 115 56
51 76 21 71 -106 -1 -49 -1 -89 2 -89 27 1 33 23 31 110 -3 137 -18 158 -89
130z"/>
<path d="M291 304 c0 -11 3 -14 6 -6 3 7 2 16 -1 19 -3 4 -6 -2 -5 -13z"/>
</g>
</svg>
